<svg width="51" height="58" viewBox="0 0 51 58" fill="none" xmlns="http://www.w3.org/2000/svg">
<g clip-path="url(#clip0_438_759)">
<path d="M2.88478 57.4818C2.33951 57.4818 1.81658 57.2686 1.43102 56.889C1.04546 56.5093 0.828857 55.9945 0.828857 55.4577C0.828857 54.9208 1.04546 54.406 1.43102 54.0264C1.81658 53.6468 2.33951 53.4335 2.88478 53.4335H6.99662V49.3852C6.99578 45.9481 7.98258 42.5808 9.84304 39.6725C11.7035 36.7641 14.3617 34.4332 17.5106 32.9491C18.703 32.3864 19.3321 31.4229 19.3321 30.5606V27.7268C19.3321 26.8645 18.6989 25.9011 17.5106 25.3383C14.3617 23.8543 11.7035 21.5234 9.84304 18.615C7.98258 15.7066 6.99578 12.3394 6.99662 8.90226V4.85396H2.88478C2.33951 4.85396 1.81658 4.6407 1.43102 4.2611C1.04546 3.8815 0.828857 3.36665 0.828857 2.82981C0.828857 2.29297 1.04546 1.77812 1.43102 1.39852C1.81658 1.01892 2.33951 0.805664 2.88478 0.805664H48.115C48.6603 0.805664 49.1832 1.01892 49.5688 1.39852C49.9544 1.77812 50.171 2.29297 50.171 2.82981C50.171 3.36665 49.9544 3.8815 49.5688 4.2611C49.1832 4.6407 48.6603 4.85396 48.115 4.85396H44.0032V8.90226C44.0041 12.3394 43.0172 15.7066 41.1568 18.615C39.2963 21.5234 36.6381 23.8543 33.4892 25.3383C32.2968 25.9011 31.6677 26.8645 31.6677 27.7268V30.5606C31.6677 31.4229 32.3009 32.3864 33.4892 32.9491C36.6381 34.4332 39.2963 36.7641 41.1568 39.6725C43.0172 42.5808 44.0041 45.9481 44.0032 49.3852V53.4335H48.115C48.6603 53.4335 49.1832 53.6468 49.5688 54.0264C49.9544 54.406 50.171 54.9208 50.171 55.4577C50.171 55.9945 49.9544 56.5093 49.5688 56.889C49.1832 57.2686 48.6603 57.4818 48.115 57.4818H2.88478ZM11.1085 4.85396V8.90226C11.1085 11.0762 11.6019 13.1327 12.4942 14.9747H38.5057C39.3938 13.1327 39.8914 11.0762 39.8914 8.90226V4.85396H11.1085ZM23.444 30.5606C23.444 33.3985 21.4785 35.5643 19.2869 36.6007C16.8375 37.7549 14.7697 39.5679 13.3225 41.8302C11.8753 44.0924 11.1077 46.7116 11.1085 49.3852C11.1085 49.3852 14.6693 44.1265 23.444 43.3937V30.5606ZM27.5558 30.5606V43.3937C36.3305 44.1265 39.8914 49.3852 39.8914 49.3852C39.8921 46.7116 39.1245 44.0924 37.6773 41.8302C36.2301 39.5679 34.1624 37.7549 31.7129 36.6007C29.5213 35.5643 27.5558 33.3985 27.5558 30.5606Z" fill="#5B5C9F"/>
</g>
<defs>
<clipPath id="clip0_438_759">
<rect width="50" height="57" fill="white" transform="translate(0.5 0.643555)"/>
</clipPath>
</defs>
</svg>
