<svg width="74" height="58" viewBox="0 0 74 58" fill="none" xmlns="http://www.w3.org/2000/svg">
<g clip-path="url(#clip0_438_745)">
<path d="M27.75 28.7871C31.4299 28.7871 34.959 27.3055 37.5611 24.6683C40.1632 22.0311 41.625 18.4542 41.625 14.7246C41.625 10.995 40.1632 7.41815 37.5611 4.78092C34.959 2.14369 31.4299 0.662109 27.75 0.662109C24.0701 0.662109 20.541 2.14369 17.9389 4.78092C15.3368 7.41815 13.875 10.995 13.875 14.7246C13.875 18.4542 15.3368 22.0311 17.9389 24.6683C20.541 27.3055 24.0701 28.7871 27.75 28.7871ZM37 14.7246C37 17.211 36.0254 19.5956 34.2907 21.3537C32.556 23.1119 30.2033 24.0996 27.75 24.0996C25.2967 24.0996 22.944 23.1119 21.2093 21.3537C19.4745 19.5956 18.5 17.211 18.5 14.7246C18.5 12.2382 19.4745 9.85364 21.2093 8.09548C22.944 6.33733 25.2967 5.34961 27.75 5.34961C30.2033 5.34961 32.556 6.33733 34.2907 8.09548C36.0254 9.85364 37 12.2382 37 14.7246ZM55.5 52.2246C55.5 56.9121 50.875 56.9121 50.875 56.9121H4.625C4.625 56.9121 0 56.9121 0 52.2246C0 47.5371 4.625 33.4746 27.75 33.4746C50.875 33.4746 55.5 47.5371 55.5 52.2246ZM50.875 52.2059C50.8704 51.0527 50.1628 47.584 47.027 44.4059C44.0115 41.3496 38.3366 38.1621 27.75 38.1621C17.1634 38.1621 11.4885 41.3496 8.473 44.4059C5.33725 47.584 4.63425 51.0527 4.625 52.2059H50.875Z" fill="#5B5C9F"/>
<path fill-rule="evenodd" clip-rule="evenodd" d="M62.4375 14.7246C63.0508 14.7246 63.639 14.9715 64.0727 15.4111C64.5064 15.8506 64.75 16.4468 64.75 17.0684V24.0996H71.6875C72.3008 24.0996 72.889 24.3465 73.3227 24.7861C73.7564 25.2256 74 25.8218 74 26.4434C74 27.065 73.7564 27.6611 73.3227 28.1006C72.889 28.5402 72.3008 28.7871 71.6875 28.7871H64.75V35.8184C64.75 36.44 64.5064 37.0361 64.0727 37.4756C63.639 37.9152 63.0508 38.1621 62.4375 38.1621C61.8242 38.1621 61.236 37.9152 60.8023 37.4756C60.3686 37.0361 60.125 36.44 60.125 35.8184V28.7871H53.1875C52.5742 28.7871 51.986 28.5402 51.5523 28.1006C51.1186 27.6611 50.875 27.065 50.875 26.4434C50.875 25.8218 51.1186 25.2256 51.5523 24.7861C51.986 24.3465 52.5742 24.0996 53.1875 24.0996H60.125V17.0684C60.125 16.4468 60.3686 15.8506 60.8023 15.4111C61.236 14.9715 61.8242 14.7246 62.4375 14.7246Z" fill="#5B5C9F"/>
</g>
<defs>
<clipPath id="clip0_438_745">
<rect width="74" height="57" fill="white" transform="translate(0 0.643555)"/>
</clipPath>
</defs>
</svg>
