<svg width="394" height="160" viewBox="0 0 394 160" fill="none" xmlns="http://www.w3.org/2000/svg">
<path d="M34.902 157.882L12.348 90.346C11.34 87.238 10.542 84.592 9.954 82.408C9.366 80.14 8.988 78.25 8.82 76.738C7.392 76.822 6.048 76.906 4.788 76.99C3.612 76.99 2.478 77.032 1.386 77.116V68.8H36.414V75.73C32.718 75.73 30.198 76.486 28.854 77.998C27.594 79.51 27.552 82.366 28.728 86.566C29.988 91.606 31.332 96.478 32.76 101.182C34.188 105.886 35.574 110.674 36.918 115.546C37.842 118.738 38.682 121.72 39.438 124.492C40.278 127.18 41.16 130.54 42.084 134.572H42.336C42.672 133.312 43.134 131.59 43.722 129.406C44.31 127.222 44.94 124.954 45.612 122.602C46.368 120.25 46.998 118.108 47.502 116.176C48.09 114.16 48.51 112.69 48.762 111.766C50.442 106.39 52.08 101.14 53.676 96.016C55.356 90.808 56.91 85.894 58.338 81.274C59.85 76.57 61.152 72.37 62.244 68.674H71.064C72.156 72.202 73.332 75.982 74.592 80.014C75.852 83.962 77.154 88.036 78.498 92.236C79.842 96.352 81.144 100.426 82.404 104.458C83.664 108.406 84.84 112.06 85.932 115.42C86.94 118.612 87.864 121.846 88.704 125.122C89.628 128.398 90.51 131.716 91.35 135.076H91.602C92.358 132.472 93.114 129.742 93.87 126.886C94.71 124.03 95.592 121.09 96.516 118.066C97.608 114.538 98.574 111.346 99.414 108.49C100.254 105.634 101.01 103.03 101.682 100.678C102.438 98.242 103.11 95.974 103.698 93.874C104.286 91.69 104.874 89.548 105.462 87.448C105.966 85.6 106.596 83.71 107.352 81.778C108.192 79.762 109.158 78.082 110.25 76.738C108.822 76.822 107.1 76.906 105.084 76.99C103.152 76.99 101.598 77.032 100.422 77.116V68.8H127.89V75.73C125.706 75.898 123.774 76.444 122.094 77.368C120.498 78.208 119.028 79.72 117.684 81.904C116.34 84.004 115.038 87.028 113.778 90.976C110.25 102.232 106.722 113.446 103.194 124.618C99.666 135.706 96.096 146.794 92.484 157.882H83.79L67.41 109.624C66.486 106.684 65.646 103.828 64.89 101.056C64.218 98.284 63.504 95.596 62.748 92.992C62.244 95.596 61.656 98.116 60.984 100.552C60.396 102.988 59.724 105.508 58.968 108.112L43.344 157.882H34.902ZM173.537 159.016C165.557 159.016 158.753 157.672 153.125 154.984C147.497 152.296 142.919 148.726 139.391 144.274C135.947 139.738 133.427 134.74 131.831 129.28C130.235 123.82 129.437 118.36 129.437 112.9C129.437 107.608 130.319 102.274 132.083 96.898C133.847 91.438 136.535 86.44 140.147 81.904C143.843 77.368 148.463 73.714 154.007 70.942C159.551 68.17 166.061 66.784 173.537 66.784C181.181 66.784 187.775 68.17 193.319 70.942C198.947 73.714 203.525 77.41 207.053 82.03C210.665 86.566 213.311 91.522 214.991 96.898C216.755 102.274 217.637 107.608 217.637 112.9C217.637 118.108 216.755 123.4 214.991 128.776C213.227 134.152 210.497 139.15 206.801 143.77C203.189 148.306 198.611 152.002 193.067 154.858C187.523 157.63 181.013 159.016 173.537 159.016ZM174.545 151.204C179.249 151.204 183.197 150.112 186.389 147.928C189.665 145.744 192.311 142.888 194.327 139.36C196.343 135.832 197.813 131.968 198.737 127.768C199.745 123.484 200.249 119.284 200.249 115.168C200.249 109.54 199.661 104.29 198.485 99.418C197.309 94.462 195.545 90.136 193.193 86.44C190.925 82.744 188.027 79.846 184.499 77.746C180.971 75.562 176.897 74.512 172.277 74.596C167.657 74.68 163.709 75.856 160.433 78.124C157.241 80.308 154.595 83.206 152.495 86.818C150.479 90.346 149.009 94.252 148.085 98.536C147.161 102.82 146.699 107.02 146.699 111.136C146.699 115.336 147.203 119.746 148.211 124.366C149.219 128.986 150.815 133.354 152.999 137.47C155.183 141.586 158.039 144.904 161.567 147.424C165.179 149.944 169.505 151.204 174.545 151.204ZM227.667 157V150.07C230.019 149.986 231.825 149.608 233.085 148.936C234.345 148.18 235.227 146.92 235.731 145.156C236.235 143.308 236.487 140.788 236.487 137.596V87.322C236.487 85.222 236.529 83.206 236.613 81.274C236.781 79.342 236.907 77.83 236.991 76.738C235.563 76.822 233.925 76.906 232.077 76.99C230.229 76.99 228.759 77.032 227.667 77.116V68.8C233.211 68.716 238.755 68.674 244.299 68.674C249.927 68.59 255.513 68.548 261.057 68.548C268.701 68.548 275.169 69.43 280.461 71.194C285.837 72.958 289.869 75.73 292.557 79.51C295.329 83.206 296.673 88.078 296.589 94.126C296.505 97.57 295.707 100.93 294.195 104.206C292.683 107.482 290.289 110.38 287.013 112.9C283.737 115.42 279.369 117.394 273.909 118.822C275.505 119.662 277.017 120.88 278.445 122.476C279.957 124.072 281.343 125.836 282.603 127.768L289.407 138.226C291.087 140.83 292.641 143.014 294.069 144.778C295.497 146.458 296.967 147.76 298.479 148.684C299.991 149.524 301.797 149.986 303.897 150.07V157H284.745C282.981 155.572 281.301 153.808 279.705 151.708C278.193 149.608 276.597 147.172 274.917 144.4L265.845 129.91C264.753 128.146 263.703 126.508 262.695 124.996C261.771 123.4 260.721 122.056 259.545 120.964C258.201 121.048 256.983 121.09 255.891 121.09C254.799 121.09 253.623 121.048 252.363 120.964V138.1C252.363 140.452 252.321 142.594 252.237 144.526C252.153 146.458 252.027 147.97 251.859 149.062C252.783 148.978 253.875 148.936 255.135 148.936C256.479 148.852 257.781 148.81 259.041 148.81C260.301 148.726 261.309 148.684 262.065 148.684V157H227.667ZM258.915 113.404C263.619 113.32 267.483 112.606 270.507 111.262C273.615 109.918 275.925 107.818 277.437 104.962C279.033 102.106 279.831 98.452 279.831 94C279.831 90.22 279.243 87.154 278.067 84.802C276.975 82.45 275.463 80.644 273.531 79.384C271.683 78.124 269.625 77.284 267.357 76.864C265.173 76.36 262.989 76.108 260.805 76.108C258.621 76.108 256.899 76.444 255.639 77.116C254.379 77.788 253.497 79.006 252.993 80.77C252.573 82.45 252.363 84.76 252.363 87.7V113.026C253.371 113.11 254.421 113.194 255.513 113.278C256.605 113.362 257.739 113.404 258.915 113.404ZM311.708 157V150.07C314.06 149.986 315.866 149.608 317.126 148.936C318.386 148.18 319.268 146.92 319.772 145.156C320.276 143.308 320.528 140.788 320.528 137.596V87.322C320.528 85.222 320.57 83.206 320.654 81.274C320.822 79.342 320.948 77.83 321.032 76.738C319.604 76.822 317.966 76.906 316.118 76.99C314.27 76.99 312.8 77.032 311.708 77.116V68.8H345.224V75.73C342.956 75.814 341.15 76.234 339.806 76.99C338.546 77.662 337.664 78.88 337.16 80.644C336.656 82.408 336.404 84.928 336.404 88.204V107.86H345.602L357.32 88.582C358.58 86.314 360.008 84.004 361.604 81.652C363.2 79.3 364.67 77.62 366.014 76.612C364.67 76.696 363.284 76.78 361.856 76.864C360.428 76.864 359.168 76.906 358.076 76.99V68.8H387.686V75.73C385.334 75.898 382.982 76.318 380.63 76.99C378.278 77.662 375.926 79.006 373.574 81.022C371.222 82.954 368.786 85.936 366.266 89.968L354.044 109.498C355.976 110.674 357.614 111.976 358.958 113.404C360.386 114.832 361.688 116.344 362.864 117.94L376.22 136.462C378.404 139.402 380.42 141.88 382.268 143.896C384.2 145.912 386.048 147.424 387.812 148.432C389.66 149.44 391.508 149.986 393.356 150.07V157H375.338C374.582 156.916 373.448 156.202 371.936 154.858C370.508 153.514 368.954 151.876 367.274 149.944C365.678 147.928 364.208 146.038 362.864 144.274L349.508 125.374C348.248 123.61 346.904 121.888 345.476 120.208C344.048 118.444 342.704 117.1 341.444 116.176L336.404 116.302V138.226C336.404 140.494 336.362 142.594 336.278 144.526C336.194 146.458 336.068 147.97 335.9 149.062C337.328 148.978 338.966 148.894 340.814 148.81C342.662 148.726 344.132 148.684 345.224 148.684V157H311.708Z" fill="#2C3E50" fill-opacity="0.3"/>
</svg>
